<svg viewBox="0 0 100 100" xmlns="http://www.w3.org/2000/svg">
  <path
    d="M20 75
       Q15 55, 25 40
       Q35 25, 50 30
       Q40 35, 35 50
       Q30 65, 40 70
       M35 50
       Q50 45, 60 35
       Q70 25, 75 30
       Q80 35, 75 45
       Q70 55, 55 55
       Q65 55, 75 50
       Q85 45, 85 55
       Q85 70, 70 75
       M45 55
       Q55 50, 65 55
       Q75 60, 80 70"
    fill="none"
    stroke="#1F2937"
    stroke-width="2.5"
    stroke-linecap="round"
    stroke-linejoin="round"
  />
  <path
    d="M25 35
       Q45 20, 70 25
       Q85 28, 80 40"
    fill="none"
    stroke="#1F2937"
    stroke-width="2"
    stroke-linecap="round"
  />
  <path
    d="M55 65
       Q70 60, 82 68
       Q88 72, 85 78"
    fill="none"
    stroke="#1F2937"
    stroke-width="2"
    stroke-linecap="round"
  />
</svg>